# xmcd
#
# Track frame offsets:
# 150
# 11785
# 25827
# 40622
# 51780
# 61156
#
# Disc length: 904 seconds
#
#
# Revision: 0
# Processed by: cddbd v1.5.2PL0 Copyright (c) Steve Scherf et al.
# Submitted via: FreeRIP 2.96 
#
DISCID=41038606
DTITLE=Mf Doom and Dj Dangermouse  Aka Danger Doom - Be Afraid Be Very Afraid...
DYEAR=2005
DGENRE=Hip-Hop
TTITLE0=Mincemeat - Danger Doom
TTITLE1=Social Distortion - Prince Po and Mf Doom
TTITLE2=Doomage - Non Prophets, Slug and Brother Ali
TTITLE3=Garden Gnomes - Dangermouse and Sage Francis
TTITLE4=Perfect Hair - Danger Doom
TTITLE5=Knuckle Sandwich - Dangermouse and Jemini
EXTD=
EXTT0=
EXTT1=
EXTT2=
EXTT3=
EXTT4=
EXTT5=
PLAYORDER=
